<svg version="1.1" xmlns="http://www.w3.org/2000/svg" xmlns:xlink="http://www.w3.org/1999/xlink" width="940" height="475"><defs/><g><g transform="translate(-278,-38) scale(1,1)"><rect fill="#C0C0C0" stroke="none" x="623" y="151" width="231" height="199" opacity="0.2"/></g><g transform="translate(-278,-38) scale(1,1)"><rect fill="#ffffff" stroke="none" x="616" y="144" width="231" height="199"/></g><g transform="translate(-278,-38) scale(1,1)"><path fill="none" stroke="#000000" d="M 616 144 L 847 144 L 847 343 L 616 343 L 616 144 Z Z" stroke-miterlimit="10"/></g><g transform="translate(-278,-38) scale(1,1)"><path fill="none" stroke="#000000" d="M 616 169 L 847 169" stroke-miterlimit="10"/></g><g transform="translate(-278,-38) scale(1,1)"><path fill="none" stroke="#000000" d="M 616 222 L 847 222" stroke-miterlimit="10"/></g><g transform="translate(-278,-38) scale(1,1)"><g><path fill="none" stroke="none"/><text fill="#000000" stroke="none" font-family="Arial" font-size="13px" font-style="italic" font-weight="bold" text-decoration="none" x="693.925048828125" y="163.5">Kunstwerken</text></g></g><g transform="translate(-278,-38) scale(1,1)"><g><path fill="none" stroke="none"/><text fill="#000000" stroke="none" font-family="Arial" font-size="13px" font-style="normal" font-weight="normal" text-decoration="none" x="621" y="186.5">+titel: string</text></g></g><g transform="translate(-278,-38) scale(1,1)"><g><path fill="none" stroke="none"/><text fill="#000000" stroke="none" font-family="Arial" font-size="13px" font-style="normal" font-weight="normal" text-decoration="none" x="621" y="201.5">+jaar: string</text></g></g><g transform="translate(-278,-38) scale(1,1)"><g><path fill="none" stroke="none"/><text fill="#000000" stroke="none" font-family="Arial" font-size="13px" font-style="normal" font-weight="normal" text-decoration="none" x="621" y="216.5">+kunstenaar: string</text></g></g><g transform="translate(-278,-38) scale(1,1)"><rect fill="#C0C0C0" stroke="none" x="335" y="55" width="135" height="72" opacity="0.2"/></g><g transform="translate(-278,-38) scale(1,1)"><rect fill="#ffffff" stroke="none" x="328" y="48" width="135" height="72"/></g><g transform="translate(-278,-38) scale(1,1)"><path fill="none" stroke="#000000" d="M 328 48 L 463 48 L 463 120 L 328 120 L 328 48 Z Z" stroke-miterlimit="10"/></g><g transform="translate(-278,-38) scale(1,1)"><path fill="none" stroke="#000000" d="M 328 73 L 463 73" stroke-miterlimit="10"/></g><g transform="translate(-278,-38) scale(1,1)"><path fill="none" stroke="#000000" d="M 328 111 L 463 111" stroke-miterlimit="10"/></g><g transform="translate(-278,-38) scale(1,1)"><g><path fill="none" stroke="none"/><text fill="#000000" stroke="none" font-family="Arial" font-size="13px" font-style="normal" font-weight="bold" text-decoration="none" x="357.921875" y="67.5">Beelhouwerk</text></g></g><g transform="translate(-278,-38) scale(1,1)"><g><path fill="none" stroke="none"/><text fill="#000000" stroke="none" font-family="Arial" font-size="13px" font-style="normal" font-weight="normal" text-decoration="none" x="333" y="90.5">+afbeelding: string</text></g></g><g transform="translate(-278,-38) scale(1,1)"><g><path fill="none" stroke="none"/><text fill="#000000" stroke="none" font-family="Arial" font-size="13px" font-style="normal" font-weight="normal" text-decoration="none" x="333" y="105.5">+gewicht: int</text></g></g><g transform="translate(-278,-38) scale(1,1)"><rect fill="#C0C0C0" stroke="none" x="295" y="159" width="177.1806640625" height="72" opacity="0.2"/></g><g transform="translate(-278,-38) scale(1,1)"><rect fill="#ffffff" stroke="none" x="288" y="152" width="177.1806640625" height="72"/></g><g transform="translate(-278,-38) scale(1,1)"><path fill="none" stroke="#000000" d="M 288 152 L 465.1806640625 152 L 465.1806640625 224 L 288 224 L 288 152 Z Z" stroke-miterlimit="10"/></g><g transform="translate(-278,-38) scale(1,1)"><path fill="none" stroke="#000000" d="M 288 177 L 465.1806640625 177" stroke-miterlimit="10"/></g><g transform="translate(-278,-38) scale(1,1)"><path fill="none" stroke="#000000" d="M 288 200 L 465.1806640625 200" stroke-miterlimit="10"/></g><g transform="translate(-278,-38) scale(1,1)"><g><path fill="none" stroke="none"/><text fill="#000000" stroke="none" font-family="Arial" font-size="13px" font-style="normal" font-weight="bold" text-decoration="none" x="361.77490234375" y="171.5">Boek</text></g></g><g transform="translate(-278,-38) scale(1,1)"><g><path fill="none" stroke="none"/><text fill="#000000" stroke="none" font-family="Arial" font-size="13px" font-style="normal" font-weight="normal" text-decoration="none" x="293" y="194.5">+aantalBladzijden: string</text></g></g><g transform="translate(-278,-38) scale(1,1)"><rect fill="#C0C0C0" stroke="none" x="335" y="263" width="135" height="63" opacity="0.2"/></g><g transform="translate(-278,-38) scale(1,1)"><rect fill="#ffffff" stroke="none" x="328" y="256" width="135" height="63"/></g><g transform="translate(-278,-38) scale(1,1)"><path fill="none" stroke="#000000" d="M 328 256 L 463 256 L 463 319 L 328 319 L 328 256 Z Z" stroke-miterlimit="10"/></g><g transform="translate(-278,-38) scale(1,1)"><path fill="none" stroke="#000000" d="M 328 281 L 463 281" stroke-miterlimit="10"/></g><g transform="translate(-278,-38) scale(1,1)"><path fill="none" stroke="#000000" d="M 328 291 L 463 291" stroke-miterlimit="10"/></g><g transform="translate(-278,-38) scale(1,1)"><g><path fill="none" stroke="none"/><text fill="#000000" stroke="none" font-family="Arial" font-size="13px" font-style="normal" font-weight="bold" text-decoration="none" x="380.325927734375" y="275.5">Dans</text></g></g><g transform="translate(-278,-38) scale(1,1)"><rect fill="#C0C0C0" stroke="none" x="335" y="367" width="135" height="72" opacity="0.2"/></g><g transform="translate(-278,-38) scale(1,1)"><rect fill="#ffffff" stroke="none" x="328" y="360" width="135" height="72"/></g><g transform="translate(-278,-38) scale(1,1)"><path fill="none" stroke="#000000" d="M 328 360 L 463 360 L 463 432 L 328 432 L 328 360 Z Z" stroke-miterlimit="10"/></g><g transform="translate(-278,-38) scale(1,1)"><path fill="none" stroke="#000000" d="M 328 385 L 463 385" stroke-miterlimit="10"/></g><g transform="translate(-278,-38) scale(1,1)"><path fill="none" stroke="#000000" d="M 328 423 L 463 423" stroke-miterlimit="10"/></g><g transform="translate(-278,-38) scale(1,1)"><g><path fill="none" stroke="none"/><text fill="#000000" stroke="none" font-family="Arial" font-size="13px" font-style="normal" font-weight="bold" text-decoration="none" x="383.226806640625" y="379.5">Film</text></g></g><g transform="translate(-278,-38) scale(1,1)"><g><path fill="none" stroke="none"/><text fill="#000000" stroke="none" font-family="Arial" font-size="13px" font-style="normal" font-weight="normal" text-decoration="none" x="333" y="402.5">+afbeelding: string</text></g></g><g transform="translate(-278,-38) scale(1,1)"><g><path fill="none" stroke="none"/><text fill="#000000" stroke="none" font-family="Arial" font-size="13px" font-style="normal" font-weight="normal" text-decoration="none" x="333" y="417.5">+duur: int</text></g></g><g transform="translate(-278,-38) scale(1,1)"><rect fill="#C0C0C0" stroke="none" x="1047" y="55" width="135" height="71" opacity="0.2"/></g><g transform="translate(-278,-38) scale(1,1)"><rect fill="#ffffff" stroke="none" x="1040" y="48" width="135" height="71"/></g><g transform="translate(-278,-38) scale(1,1)"><path fill="none" stroke="#000000" d="M 1040 48 L 1175 48 L 1175 119 L 1040 119 L 1040 48 Z Z" stroke-miterlimit="10"/></g><g transform="translate(-278,-38) scale(1,1)"><path fill="none" stroke="#000000" d="M 1040 73 L 1175 73" stroke-miterlimit="10"/></g><g transform="translate(-278,-38) scale(1,1)"><path fill="none" stroke="#000000" d="M 1040 96 L 1175 96" stroke-miterlimit="10"/></g><g transform="translate(-278,-38) scale(1,1)"><g><path fill="none" stroke="none"/><text fill="#000000" stroke="none" font-family="Arial" font-size="13px" font-style="normal" font-weight="bold" text-decoration="none" x="1094.49365234375" y="67.5">Foto</text></g></g><g transform="translate(-278,-38) scale(1,1)"><g><path fill="none" stroke="none"/><text fill="#000000" stroke="none" font-family="Arial" font-size="13px" font-style="normal" font-weight="normal" text-decoration="none" x="1045" y="90.5">+afbeelding: string</text></g></g><g transform="translate(-278,-38) scale(1,1)"><rect fill="#C0C0C0" stroke="none" x="1047" y="439" width="168" height="71" opacity="0.2"/></g><g transform="translate(-278,-38) scale(1,1)"><rect fill="#ffffff" stroke="none" x="1040" y="432" width="168" height="71"/></g><g transform="translate(-278,-38) scale(1,1)"><path fill="none" stroke="#000000" d="M 1040 432 L 1208 432 L 1208 503 L 1040 503 L 1040 432 Z Z" stroke-miterlimit="10"/></g><g transform="translate(-278,-38) scale(1,1)"><path fill="none" stroke="#000000" d="M 1040 457 L 1208 457" stroke-miterlimit="10"/></g><g transform="translate(-278,-38) scale(1,1)"><path fill="none" stroke="#000000" d="M 1040 480 L 1208 480" stroke-miterlimit="10"/></g><g transform="translate(-278,-38) scale(1,1)"><g><path fill="none" stroke="none"/><text fill="#000000" stroke="none" font-family="Arial" font-size="13px" font-style="normal" font-weight="bold" text-decoration="none" x="1101.59912109375" y="451.5">Gedicht</text></g></g><g transform="translate(-278,-38) scale(1,1)"><g><path fill="none" stroke="none"/><text fill="#000000" stroke="none" font-family="Arial" font-size="13px" font-style="normal" font-weight="normal" text-decoration="none" x="1045" y="474.5">+aantalwoorden: int</text></g></g><g transform="translate(-278,-38) scale(1,1)"><rect fill="#C0C0C0" stroke="none" x="1047" y="343" width="127" height="63" opacity="0.2"/></g><g transform="translate(-278,-38) scale(1,1)"><rect fill="#ffffff" stroke="none" x="1040" y="336" width="127" height="63"/></g><g transform="translate(-278,-38) scale(1,1)"><path fill="none" stroke="#000000" d="M 1040 336 L 1167 336 L 1167 399 L 1040 399 L 1040 336 Z Z" stroke-miterlimit="10"/></g><g transform="translate(-278,-38) scale(1,1)"><path fill="none" stroke="#000000" d="M 1040 361 L 1167 361" stroke-miterlimit="10"/></g><g transform="translate(-278,-38) scale(1,1)"><path fill="none" stroke="#000000" d="M 1040 384 L 1167 384" stroke-miterlimit="10"/></g><g transform="translate(-278,-38) scale(1,1)"><g><path fill="none" stroke="none"/><text fill="#000000" stroke="none" font-family="Arial" font-size="13px" font-style="normal" font-weight="bold" text-decoration="none" x="1091.2109375" y="355.5">Lied</text></g></g><g transform="translate(-278,-38) scale(1,1)"><g><path fill="none" stroke="none"/><text fill="#000000" stroke="none" font-family="Arial" font-size="13px" font-style="normal" font-weight="normal" text-decoration="none" x="1045" y="378.5">+duur: int</text></g></g><g transform="translate(-278,-38) scale(1,1)"><rect fill="#C0C0C0" stroke="none" x="1047" y="247" width="127" height="63" opacity="0.2"/></g><g transform="translate(-278,-38) scale(1,1)"><rect fill="#ffffff" stroke="none" x="1040" y="240" width="127" height="63"/></g><g transform="translate(-278,-38) scale(1,1)"><path fill="none" stroke="#000000" d="M 1040 240 L 1167 240 L 1167 303 L 1040 303 L 1040 240 Z Z" stroke-miterlimit="10"/></g><g transform="translate(-278,-38) scale(1,1)"><path fill="none" stroke="#000000" d="M 1040 265 L 1167 265" stroke-miterlimit="10"/></g><g transform="translate(-278,-38) scale(1,1)"><path fill="none" stroke="#000000" d="M 1040 288 L 1167 288" stroke-miterlimit="10"/></g><g transform="translate(-278,-38) scale(1,1)"><g><path fill="none" stroke="none"/><text fill="#000000" stroke="none" font-family="Arial" font-size="13px" font-style="normal" font-weight="bold" text-decoration="none" x="1077.128662109375" y="259.5">Schilderij</text></g></g><g transform="translate(-278,-38) scale(1,1)"><g><path fill="none" stroke="none"/><text fill="#000000" stroke="none" font-family="Arial" font-size="13px" font-style="normal" font-weight="normal" text-decoration="none" x="1045" y="282.5">+afbeelding: string</text></g></g><g transform="translate(-278,-38) scale(1,1)"><rect fill="#C0C0C0" stroke="none" x="1047" y="143" width="127" height="79" opacity="0.2"/></g><g transform="translate(-278,-38) scale(1,1)"><rect fill="#ffffff" stroke="none" x="1040" y="136" width="127" height="79"/></g><g transform="translate(-278,-38) scale(1,1)"><path fill="none" stroke="#000000" d="M 1040 136 L 1167 136 L 1167 215 L 1040 215 L 1040 136 Z Z" stroke-miterlimit="10"/></g><g transform="translate(-278,-38) scale(1,1)"><path fill="none" stroke="#000000" d="M 1040 161 L 1167 161" stroke-miterlimit="10"/></g><g transform="translate(-278,-38) scale(1,1)"><path fill="none" stroke="#000000" d="M 1040 199 L 1167 199" stroke-miterlimit="10"/></g><g transform="translate(-278,-38) scale(1,1)"><g><path fill="none" stroke="none"/><text fill="#000000" stroke="none" font-family="Arial" font-size="13px" font-style="normal" font-weight="bold" text-decoration="none" x="1088.6845703125" y="155.5">Vaas</text></g></g><g transform="translate(-278,-38) scale(1,1)"><g><path fill="none" stroke="none"/><text fill="#000000" stroke="none" font-family="Arial" font-size="13px" font-style="normal" font-weight="normal" text-decoration="none" x="1045" y="178.5">+afbeelding: string</text></g></g><g transform="translate(-278,-38) scale(1,1)"><g><path fill="none" stroke="none"/><text fill="#000000" stroke="none" font-family="Arial" font-size="13px" font-style="normal" font-weight="normal" text-decoration="none" x="1045" y="193.5">+gewicht: int</text></g></g><g transform="translate(-278,-38) scale(1,1)"><path fill="none" stroke="#000000" d="M 1039 112 L 848 193" stroke-miterlimit="10"/></g><g transform="translate(-278,-38) scale(1,1)"><path fill="#FFFFFF" stroke="none" d="M 863.4252030050826 177.3136010425595 L 848 193 L 869.9992247212768 192.81530657086924"/></g><g transform="translate(-278,-38) scale(1,1)"><path fill="none" stroke="#000000" d="M 863.4252030050826 177.3136010425595 L 848 193 L 869.9992247212768 192.81530657086924 L 863.4252030050826 177.3136010425595" stroke-miterlimit="10"/></g><g transform="translate(-278,-38) scale(1,1)"><path fill="none" stroke="#000000" d="M 464 117 L 615 188" stroke-miterlimit="10"/></g><g transform="translate(-278,-38) scale(1,1)"><path fill="#FFFFFF" stroke="none" d="M 593.0241134880329 186.97023691407202 L 615 188 L 600.1888540858773 171.7325491637268"/></g><g transform="translate(-278,-38) scale(1,1)"><path fill="none" stroke="#000000" d="M 593.0241134880329 186.97023691407202 L 615 188 L 600.1888540858773 171.7325491637268 L 593.0241134880329 186.97023691407202" stroke-miterlimit="10"/></g><g transform="translate(-278,-38) scale(1,1)"><path fill="none" stroke="#000000" d="M 466 202 L 615 225" stroke-miterlimit="10"/></g><g transform="translate(-278,-38) scale(1,1)"><path fill="#FFFFFF" stroke="none" d="M 593.6281897992069 230.21974412603473 L 615 225 L 596.1969316132096 213.57876454836514"/></g><g transform="translate(-278,-38) scale(1,1)"><path fill="none" stroke="#000000" d="M 593.6281897992069 230.21974412603473 L 615 225 L 596.1969316132096 213.57876454836514 L 593.6281897992069 230.21974412603473" stroke-miterlimit="10"/></g><g transform="translate(-278,-38) scale(1,1)"><path fill="none" stroke="#000000" d="M 464 278 L 615 258" stroke-miterlimit="10"/></g><g transform="translate(-278,-38) scale(1,1)"><path fill="#FFFFFF" stroke="none" d="M 595.9560727298447 269.01493686450505 L 615 258 L 593.7451733356165 252.3226464380829"/></g><g transform="translate(-278,-38) scale(1,1)"><path fill="none" stroke="#000000" d="M 595.9560727298447 269.01493686450505 L 615 258 L 593.7451733356165 252.3226464380829 L 595.9560727298447 269.01493686450505" stroke-miterlimit="10"/></g><g transform="translate(-278,-38) scale(1,1)"><path fill="none" stroke="#000000" d="M 464 365 L 615 296" stroke-miterlimit="10"/></g><g transform="translate(-278,-38) scale(1,1)"><path fill="#FFFFFF" stroke="none" d="M 600.0123884881575 312.105014783293 L 615 296 L 593.0141931018105 296.7901234305627"/></g><g transform="translate(-278,-38) scale(1,1)"><path fill="none" stroke="#000000" d="M 600.0123884881575 312.105014783293 L 615 296 L 593.0141931018105 296.7901234305627 L 600.0123884881575 312.105014783293" stroke-miterlimit="10"/></g><g transform="translate(-278,-38) scale(1,1)"><path fill="none" stroke="#000000" d="M 1039 187 L 848 222" stroke-miterlimit="10"/></g><g transform="translate(-278,-38) scale(1,1)"><path fill="#FFFFFF" stroke="none" d="M 866.4749690109165 210.05531415039835 L 848 222 L 869.5099442332267 226.61760750643407"/></g><g transform="translate(-278,-38) scale(1,1)"><path fill="none" stroke="#000000" d="M 866.4749690109165 210.05531415039835 L 848 222 L 869.5099442332267 226.61760750643407 L 866.4749690109165 210.05531415039835" stroke-miterlimit="10"/></g><g transform="translate(-278,-38) scale(1,1)"><path fill="none" stroke="#000000" d="M 1039 266 L 848 252" stroke-miterlimit="10"/></g><g transform="translate(-278,-38) scale(1,1)"><path fill="#FFFFFF" stroke="none" d="M 868.8864191433101 245.0893201948024 L 848 252 L 867.6555171638033 261.882340058075"/></g><g transform="translate(-278,-38) scale(1,1)"><path fill="none" stroke="#000000" d="M 868.8864191433101 245.0893201948024 L 848 252 L 867.6555171638033 261.882340058075 L 868.8864191433101 245.0893201948024" stroke-miterlimit="10"/></g><g transform="translate(-278,-38) scale(1,1)"><path fill="none" stroke="#000000" d="M 1039 346 L 848 282" stroke-miterlimit="10"/></g><g transform="translate(-278,-38) scale(1,1)"><path fill="#FFFFFF" stroke="none" d="M 869.9470738365 280.4748934413552 L 848 282 L 864.5973379266408 296.44051154734115"/></g><g transform="translate(-278,-38) scale(1,1)"><path fill="none" stroke="#000000" d="M 869.9470738365 280.4748934413552 L 848 282 L 864.5973379266408 296.44051154734115 L 869.9470738365 280.4748934413552" stroke-miterlimit="10"/></g></g></svg>