<svg version="1.1" xmlns="http://www.w3.org/2000/svg" xmlns:xlink="http://www.w3.org/1999/xlink" width="1380.23974609375" height="570"><defs/><g><g transform="translate(-238,-46) scale(1,1)"><rect fill="#C0C0C0" stroke="none" x="759" y="63" width="231" height="199" opacity="0.2"/></g><g transform="translate(-238,-46) scale(1,1)"><rect fill="#ffffff" stroke="none" x="752" y="56" width="231" height="199"/></g><g transform="translate(-238,-46) scale(1,1)"><path fill="none" stroke="#000000" d="M 752 56 L 983 56 L 983 255 L 752 255 L 752 56 Z Z" stroke-miterlimit="10"/></g><g transform="translate(-238,-46) scale(1,1)"><path fill="none" stroke="#000000" d="M 752 81 L 983 81" stroke-miterlimit="10"/></g><g transform="translate(-238,-46) scale(1,1)"><path fill="none" stroke="#000000" d="M 752 134 L 983 134" stroke-miterlimit="10"/></g><g transform="translate(-238,-46) scale(1,1)"><g><path fill="none" stroke="none"/><text fill="#000000" stroke="none" font-family="Arial" font-size="13px" font-style="italic" font-weight="bold" text-decoration="none" x="829.925048828125" y="75.5">Kunstwerken</text></g></g><g transform="translate(-238,-46) scale(1,1)"><g><path fill="none" stroke="none"/><text fill="#000000" stroke="none" font-family="Arial" font-size="13px" font-style="normal" font-weight="normal" text-decoration="none" x="757" y="98.5">+titel: string</text></g></g><g transform="translate(-238,-46) scale(1,1)"><g><path fill="none" stroke="none"/><text fill="#000000" stroke="none" font-family="Arial" font-size="13px" font-style="normal" font-weight="normal" text-decoration="none" x="757" y="113.5">+jaar: string</text></g></g><g transform="translate(-238,-46) scale(1,1)"><g><path fill="none" stroke="none"/><text fill="#000000" stroke="none" font-family="Arial" font-size="13px" font-style="normal" font-weight="normal" text-decoration="none" x="757" y="128.5">+kunstenaar: string</text></g></g><g transform="translate(-238,-46) scale(1,1)"><rect fill="#C0C0C0" stroke="none" x="855" y="343" width="135" height="72" opacity="0.2"/></g><g transform="translate(-238,-46) scale(1,1)"><rect fill="#ffffff" stroke="none" x="848" y="336" width="135" height="72"/></g><g transform="translate(-238,-46) scale(1,1)"><path fill="none" stroke="#000000" d="M 848 336 L 983 336 L 983 408 L 848 408 L 848 336 Z Z" stroke-miterlimit="10"/></g><g transform="translate(-238,-46) scale(1,1)"><path fill="none" stroke="#000000" d="M 848 361 L 983 361" stroke-miterlimit="10"/></g><g transform="translate(-238,-46) scale(1,1)"><path fill="none" stroke="#000000" d="M 848 399 L 983 399" stroke-miterlimit="10"/></g><g transform="translate(-238,-46) scale(1,1)"><g><path fill="none" stroke="none"/><text fill="#000000" stroke="none" font-family="Arial" font-size="13px" font-style="normal" font-weight="bold" text-decoration="none" x="877.921875" y="355.5">Beelhouwerk</text></g></g><g transform="translate(-238,-46) scale(1,1)"><g><path fill="none" stroke="none"/><text fill="#000000" stroke="none" font-family="Arial" font-size="13px" font-style="normal" font-weight="normal" text-decoration="none" x="853" y="378.5">+afbeelding: string</text></g></g><g transform="translate(-238,-46) scale(1,1)"><g><path fill="none" stroke="none"/><text fill="#000000" stroke="none" font-family="Arial" font-size="13px" font-style="normal" font-weight="normal" text-decoration="none" x="853" y="393.5">+gewicht: int</text></g></g><g transform="translate(-238,-46) scale(1,1)"><rect fill="#C0C0C0" stroke="none" x="1127" y="63" width="177.1806640625" height="72" opacity="0.2"/></g><g transform="translate(-238,-46) scale(1,1)"><rect fill="#ffffff" stroke="none" x="1120" y="56" width="177.1806640625" height="72"/></g><g transform="translate(-238,-46) scale(1,1)"><path fill="none" stroke="#000000" d="M 1120 56 L 1297.1806640625 56 L 1297.1806640625 128 L 1120 128 L 1120 56 Z Z" stroke-miterlimit="10"/></g><g transform="translate(-238,-46) scale(1,1)"><path fill="none" stroke="#000000" d="M 1120 81 L 1297.1806640625 81" stroke-miterlimit="10"/></g><g transform="translate(-238,-46) scale(1,1)"><path fill="none" stroke="#000000" d="M 1120 119 L 1297.1806640625 119" stroke-miterlimit="10"/></g><g transform="translate(-238,-46) scale(1,1)"><g><path fill="none" stroke="none"/><text fill="#000000" stroke="none" font-family="Arial" font-size="13px" font-style="normal" font-weight="bold" text-decoration="none" x="1193.77490234375" y="75.5">Boek</text></g></g><g transform="translate(-238,-46) scale(1,1)"><g><path fill="none" stroke="none"/><text fill="#000000" stroke="none" font-family="Arial" font-size="13px" font-style="normal" font-weight="normal" text-decoration="none" x="1125" y="98.5">+aantalBladzijden: int</text></g></g><g transform="translate(-238,-46) scale(1,1)"><g><path fill="none" stroke="none"/><text fill="#000000" stroke="none" font-family="Arial" font-size="13px" font-style="normal" font-weight="normal" text-decoration="none" x="1125" y="113.5">+aantalwoorden: int</text></g></g><g transform="translate(-238,-46) scale(1,1)"><rect fill="#C0C0C0" stroke="none" x="375" y="159" width="135" height="63" opacity="0.2"/></g><g transform="translate(-238,-46) scale(1,1)"><rect fill="#ffffff" stroke="none" x="368" y="152" width="135" height="63"/></g><g transform="translate(-238,-46) scale(1,1)"><path fill="none" stroke="#000000" d="M 368 152 L 503 152 L 503 215 L 368 215 L 368 152 Z Z" stroke-miterlimit="10"/></g><g transform="translate(-238,-46) scale(1,1)"><path fill="none" stroke="#000000" d="M 368 177 L 503 177" stroke-miterlimit="10"/></g><g transform="translate(-238,-46) scale(1,1)"><path fill="none" stroke="#000000" d="M 368 200 L 503 200" stroke-miterlimit="10"/></g><g transform="translate(-238,-46) scale(1,1)"><g><path fill="none" stroke="none"/><text fill="#000000" stroke="none" font-family="Arial" font-size="13px" font-style="normal" font-weight="bold" text-decoration="none" x="420.325927734375" y="171.5">Dans</text></g></g><g transform="translate(-238,-46) scale(1,1)"><g><path fill="none" stroke="none"/><text fill="#000000" stroke="none" font-family="Arial" font-size="13px" font-style="normal" font-weight="normal" text-decoration="none" x="373" y="194.5">+afbeelding: string</text></g></g><g transform="translate(-238,-46) scale(1,1)"><rect fill="#C0C0C0" stroke="none" x="1063" y="375" width="135" height="72" opacity="0.2"/></g><g transform="translate(-238,-46) scale(1,1)"><rect fill="#ffffff" stroke="none" x="1056" y="368" width="135" height="72"/></g><g transform="translate(-238,-46) scale(1,1)"><path fill="none" stroke="#000000" d="M 1056 368 L 1191 368 L 1191 440 L 1056 440 L 1056 368 Z Z" stroke-miterlimit="10"/></g><g transform="translate(-238,-46) scale(1,1)"><path fill="none" stroke="#000000" d="M 1056 393 L 1191 393" stroke-miterlimit="10"/></g><g transform="translate(-238,-46) scale(1,1)"><path fill="none" stroke="#000000" d="M 1056 431 L 1191 431" stroke-miterlimit="10"/></g><g transform="translate(-238,-46) scale(1,1)"><g><path fill="none" stroke="none"/><text fill="#000000" stroke="none" font-family="Arial" font-size="13px" font-style="normal" font-weight="bold" text-decoration="none" x="1111.226806640625" y="387.5">Film</text></g></g><g transform="translate(-238,-46) scale(1,1)"><g><path fill="none" stroke="none"/><text fill="#000000" stroke="none" font-family="Arial" font-size="13px" font-style="normal" font-weight="normal" text-decoration="none" x="1061" y="410.5">+afbeelding: string</text></g></g><g transform="translate(-238,-46) scale(1,1)"><g><path fill="none" stroke="none"/><text fill="#000000" stroke="none" font-family="Arial" font-size="13px" font-style="normal" font-weight="normal" text-decoration="none" x="1061" y="425.5">+duur: int</text></g></g><g transform="translate(-238,-46) scale(1,1)"><rect fill="#C0C0C0" stroke="none" x="263" y="63" width="135" height="71" opacity="0.2"/></g><g transform="translate(-238,-46) scale(1,1)"><rect fill="#ffffff" stroke="none" x="256" y="56" width="135" height="71"/></g><g transform="translate(-238,-46) scale(1,1)"><path fill="none" stroke="#000000" d="M 256 56 L 391 56 L 391 127 L 256 127 L 256 56 Z Z" stroke-miterlimit="10"/></g><g transform="translate(-238,-46) scale(1,1)"><path fill="none" stroke="#000000" d="M 256 81 L 391 81" stroke-miterlimit="10"/></g><g transform="translate(-238,-46) scale(1,1)"><path fill="none" stroke="#000000" d="M 256 104 L 391 104" stroke-miterlimit="10"/></g><g transform="translate(-238,-46) scale(1,1)"><g><path fill="none" stroke="none"/><text fill="#000000" stroke="none" font-family="Arial" font-size="13px" font-style="normal" font-weight="bold" text-decoration="none" x="310.49365234375" y="75.5">Foto</text></g></g><g transform="translate(-238,-46) scale(1,1)"><g><path fill="none" stroke="none"/><text fill="#000000" stroke="none" font-family="Arial" font-size="13px" font-style="normal" font-weight="normal" text-decoration="none" x="261" y="98.5">+afbeelding: string</text></g></g><g transform="translate(-238,-46) scale(1,1)"><rect fill="#C0C0C0" stroke="none" x="1151" y="175" width="127" height="71" opacity="0.2"/></g><g transform="translate(-238,-46) scale(1,1)"><rect fill="#ffffff" stroke="none" x="1144" y="168" width="127" height="71"/></g><g transform="translate(-238,-46) scale(1,1)"><path fill="none" stroke="#000000" d="M 1144 168 L 1271 168 L 1271 239 L 1144 239 L 1144 168 Z Z" stroke-miterlimit="10"/></g><g transform="translate(-238,-46) scale(1,1)"><path fill="none" stroke="#000000" d="M 1144 193 L 1271 193" stroke-miterlimit="10"/></g><g transform="translate(-238,-46) scale(1,1)"><path fill="none" stroke="#000000" d="M 1144 216 L 1271 216" stroke-miterlimit="10"/></g><g transform="translate(-238,-46) scale(1,1)"><g><path fill="none" stroke="none"/><text fill="#000000" stroke="none" font-family="Arial" font-size="13px" font-style="normal" font-weight="bold" text-decoration="none" x="1185.09912109375" y="187.5">Gedicht</text></g></g><g transform="translate(-238,-46) scale(1,1)"><g><path fill="none" stroke="none"/><text fill="#000000" stroke="none" font-family="Arial" font-size="13px" font-style="normal" font-weight="normal" text-decoration="none" x="1149" y="210.5">+aantalwoorden: int</text></g></g><g transform="translate(-238,-46) scale(1,1)"><rect fill="#C0C0C0" stroke="none" x="1151" y="271" width="127" height="63" opacity="0.2"/></g><g transform="translate(-238,-46) scale(1,1)"><rect fill="#ffffff" stroke="none" x="1144" y="264" width="127" height="63"/></g><g transform="translate(-238,-46) scale(1,1)"><path fill="none" stroke="#000000" d="M 1144 264 L 1271 264 L 1271 327 L 1144 327 L 1144 264 Z Z" stroke-miterlimit="10"/></g><g transform="translate(-238,-46) scale(1,1)"><path fill="none" stroke="#000000" d="M 1144 289 L 1271 289" stroke-miterlimit="10"/></g><g transform="translate(-238,-46) scale(1,1)"><path fill="none" stroke="#000000" d="M 1144 312 L 1271 312" stroke-miterlimit="10"/></g><g transform="translate(-238,-46) scale(1,1)"><g><path fill="none" stroke="none"/><text fill="#000000" stroke="none" font-family="Arial" font-size="13px" font-style="normal" font-weight="bold" text-decoration="none" x="1195.2109375" y="283.5">Lied</text></g></g><g transform="translate(-238,-46) scale(1,1)"><g><path fill="none" stroke="none"/><text fill="#000000" stroke="none" font-family="Arial" font-size="13px" font-style="normal" font-weight="normal" text-decoration="none" x="1149" y="306.5">+duur: int</text></g></g><g transform="translate(-238,-46) scale(1,1)"><rect fill="#C0C0C0" stroke="none" x="455" y="255" width="127" height="63" opacity="0.2"/></g><g transform="translate(-238,-46) scale(1,1)"><rect fill="#ffffff" stroke="none" x="448" y="248" width="127" height="63"/></g><g transform="translate(-238,-46) scale(1,1)"><path fill="none" stroke="#000000" d="M 448 248 L 575 248 L 575 311 L 448 311 L 448 248 Z Z" stroke-miterlimit="10"/></g><g transform="translate(-238,-46) scale(1,1)"><path fill="none" stroke="#000000" d="M 448 273 L 575 273" stroke-miterlimit="10"/></g><g transform="translate(-238,-46) scale(1,1)"><path fill="none" stroke="#000000" d="M 448 296 L 575 296" stroke-miterlimit="10"/></g><g transform="translate(-238,-46) scale(1,1)"><g><path fill="none" stroke="none"/><text fill="#000000" stroke="none" font-family="Arial" font-size="13px" font-style="normal" font-weight="bold" text-decoration="none" x="485.128662109375" y="267.5">Schilderij</text></g></g><g transform="translate(-238,-46) scale(1,1)"><g><path fill="none" stroke="none"/><text fill="#000000" stroke="none" font-family="Arial" font-size="13px" font-style="normal" font-weight="normal" text-decoration="none" x="453" y="290.5">+afbeelding: string</text></g></g><g transform="translate(-238,-46) scale(1,1)"><rect fill="#C0C0C0" stroke="none" x="511" y="351" width="127" height="79" opacity="0.2"/></g><g transform="translate(-238,-46) scale(1,1)"><rect fill="#ffffff" stroke="none" x="504" y="344" width="127" height="79"/></g><g transform="translate(-238,-46) scale(1,1)"><path fill="none" stroke="#000000" d="M 504 344 L 631 344 L 631 423 L 504 423 L 504 344 Z Z" stroke-miterlimit="10"/></g><g transform="translate(-238,-46) scale(1,1)"><path fill="none" stroke="#000000" d="M 504 369 L 631 369" stroke-miterlimit="10"/></g><g transform="translate(-238,-46) scale(1,1)"><path fill="none" stroke="#000000" d="M 504 407 L 631 407" stroke-miterlimit="10"/></g><g transform="translate(-238,-46) scale(1,1)"><g><path fill="none" stroke="none"/><text fill="#000000" stroke="none" font-family="Arial" font-size="13px" font-style="normal" font-weight="bold" text-decoration="none" x="552.6845703125" y="363.5">Vaas</text></g></g><g transform="translate(-238,-46) scale(1,1)"><g><path fill="none" stroke="none"/><text fill="#000000" stroke="none" font-family="Arial" font-size="13px" font-style="normal" font-weight="normal" text-decoration="none" x="509" y="386.5">+afbeelding: string</text></g></g><g transform="translate(-238,-46) scale(1,1)"><g><path fill="none" stroke="none"/><text fill="#000000" stroke="none" font-family="Arial" font-size="13px" font-style="normal" font-weight="normal" text-decoration="none" x="509" y="401.5">+gewicht: int</text></g></g><g transform="translate(-238,-46) scale(1,1)"><path fill="none" stroke="#000000" d="M 392 99 L 751 141" stroke-miterlimit="10"/></g><g transform="translate(-238,-46) scale(1,1)"><path fill="#FFFFFF" stroke="none" d="M 729.8340508516 147.00021638337697 L 751 141 L 731.7906201336442 130.27620752018922"/></g><g transform="translate(-238,-46) scale(1,1)"><path fill="none" stroke="#000000" d="M 729.8340508516 147.00021638337697 L 751 141 L 731.7906201336442 130.27620752018922 L 729.8340508516 147.00021638337697" stroke-miterlimit="10"/></g><g transform="translate(-238,-46) scale(1,1)"><path fill="none" stroke="#000000" d="M 907 335 L 889 256" stroke-miterlimit="10"/></g><g transform="translate(-238,-46) scale(1,1)"><path fill="#FFFFFF" stroke="none" d="M 901.7240243796781 273.94712243189304 L 889 256 L 885.3067119484765 277.6877758972301"/></g><g transform="translate(-238,-46) scale(1,1)"><path fill="none" stroke="#000000" d="M 901.7240243796781 273.94712243189304 L 889 256 L 885.3067119484765 277.6877758972301 L 901.7240243796781 273.94712243189304" stroke-miterlimit="10"/></g><g transform="translate(-238,-46) scale(1,1)"><path fill="none" stroke="#000000" d="M 1119 108 L 984 133" stroke-miterlimit="10"/></g><g transform="translate(-238,-46) scale(1,1)"><path fill="#FFFFFF" stroke="none" d="M 1002.4525346721853 121.02068598909759 L 984 133 L 1005.5185665678541 137.57725822570993"/></g><g transform="translate(-238,-46) scale(1,1)"><path fill="none" stroke="#000000" d="M 1002.4525346721853 121.02068598909759 L 984 133 L 1005.5185665678541 137.57725822570993 L 1002.4525346721853 121.02068598909759" stroke-miterlimit="10"/></g><g transform="translate(-238,-46) scale(1,1)"><path fill="none" stroke="#000000" d="M 504 179 L 751 163" stroke-miterlimit="10"/></g><g transform="translate(-238,-46) scale(1,1)"><path fill="#FFFFFF" stroke="none" d="M 731.2613821859735 172.7152955071782 L 751 163 L 730.1729381580953 155.91244082680922"/></g><g transform="translate(-238,-46) scale(1,1)"><path fill="none" stroke="#000000" d="M 731.2613821859735 172.7152955071782 L 751 163 L 730.1729381580953 155.91244082680922 L 731.2613821859735 172.7152955071782" stroke-miterlimit="10"/></g><g transform="translate(-238,-46) scale(1,1)"><path fill="none" stroke="#000000" d="M 1085 367 L 971 256" stroke-miterlimit="10"/></g><g transform="translate(-238,-46) scale(1,1)"><path fill="#FFFFFF" stroke="none" d="M 991.4357870883944 264.1473066763081 L 971 256 L 979.6892678298642 276.21129942831203"/></g><g transform="translate(-238,-46) scale(1,1)"><path fill="none" stroke="#000000" d="M 991.4357870883944 264.1473066763081 L 971 256 L 979.6892678298642 276.21129942831203 L 991.4357870883944 264.1473066763081" stroke-miterlimit="10"/></g><g transform="translate(-238,-46) scale(1,1)"><path fill="none" stroke="#000000" d="M 620 343 L 751 243" stroke-miterlimit="10"/></g><g transform="translate(-238,-46) scale(1,1)"><path fill="#FFFFFF" stroke="none" d="M 739.9523569979112 262.0249726438278 L 751 243 L 729.7354495487557 248.64082388543412"/></g><g transform="translate(-238,-46) scale(1,1)"><path fill="none" stroke="#000000" d="M 739.9523569979112 262.0249726438278 L 751 243 L 729.7354495487557 248.64082388543412 L 739.9523569979112 262.0249726438278" stroke-miterlimit="10"/></g><g transform="translate(-238,-46) scale(1,1)"><path fill="none" stroke="#000000" d="M 576 256 L 751 195" stroke-miterlimit="10"/></g><g transform="translate(-238,-46) scale(1,1)"><path fill="#FFFFFF" stroke="none" d="M 734.5783273439007 209.63996814121944 L 751 195 L 729.0361031574352 193.74014465545775"/></g><g transform="translate(-238,-46) scale(1,1)"><path fill="none" stroke="#000000" d="M 734.5783273439007 209.63996814121944 L 751 195 L 729.0361031574352 193.74014465545775 L 734.5783273439007 209.63996814121944" stroke-miterlimit="10"/></g><g transform="translate(-238,-46) scale(1,1)"><path fill="none" stroke="#000000" d="M 1143 269 L 984 203" stroke-miterlimit="10"/></g><g transform="translate(-238,-46) scale(1,1)"><path fill="#FFFFFF" stroke="none" d="M 1005.9999937867958 203.01653423550812 L 984 203 L 999.5446533226557 218.5680362627548"/></g><g transform="translate(-238,-46) scale(1,1)"><path fill="none" stroke="#000000" d="M 1005.9999937867958 203.01653423550812 L 984 203 L 999.5446533226557 218.5680362627548 L 1005.9999937867958 203.01653423550812" stroke-miterlimit="10"/></g><g transform="translate(-238,-46) scale(1,1)"><path fill="#C0C0C0" stroke="none" d="M 1514.560791015625 194.5 C 1514.560791015625 188.1487248 1519.709515815625 183 1526.060791015625 183 C 1532.412066215625 183 1537.560791015625 188.1487248 1537.560791015625 194.5 C 1537.560791015625 200.8512752 1532.412066215625 206 1526.060791015625 206 C 1519.709515815625 206 1514.560791015625 200.8512752 1514.560791015625 194.5 Z" opacity="0.2"/></g><g transform="translate(-238,-46) scale(1,1)"><path fill="#ffffff" stroke="none" d="M 1507.560791015625 187.5 C 1507.560791015625 181.1487248 1512.709515815625 176 1519.060791015625 176 C 1525.412066215625 176 1530.560791015625 181.1487248 1530.560791015625 187.5 C 1530.560791015625 193.8512752 1525.412066215625 199 1519.060791015625 199 C 1512.709515815625 199 1507.560791015625 193.8512752 1507.560791015625 187.5 Z"/></g><g transform="translate(-238,-46) scale(1,1)"><path fill="none" stroke="#000000" d="M 1507.560791015625 187.5 C 1507.560791015625 181.1487248 1512.709515815625 176 1519.060791015625 176 C 1525.412066215625 176 1530.560791015625 181.1487248 1530.560791015625 187.5 C 1530.560791015625 193.8512752 1525.412066215625 199 1519.060791015625 199 C 1512.709515815625 199 1507.560791015625 193.8512752 1507.560791015625 187.5 Z" stroke-miterlimit="10"/></g><g transform="translate(-238,-46) scale(1,1)"><path fill="none" stroke="#000000" d="M 1432 224 L 1606.12158203125 224" stroke-miterlimit="10"/></g><g transform="translate(-238,-46) scale(1,1)"><g><path fill="none" stroke="none"/><text fill="#000000" stroke="none" font-family="Arial" font-size="13px" font-style="normal" font-weight="bold" text-decoration="none" x="1473.890869140625" y="218.5">IAantalwoorden</text></g></g><g transform="translate(-238,-46) scale(1,1)"><g><path fill="none" stroke="none"/><text fill="#000000" stroke="none" font-family="Arial" font-size="13px" font-style="normal" font-weight="normal" text-decoration="none" x="1437" y="241.5">+getIAantalwoorden():int</text></g></g><g transform="translate(-238,-46) scale(1,1)"><g><path fill="none" stroke="none"/><text fill="#000000" stroke="none" font-family="Arial" font-size="13px" font-style="normal" font-weight="normal" text-decoration="none" x="1437" y="256.5">+setIAantalwoorden(int):void</text></g></g><g transform="translate(-238,-46) scale(1,1)"><path fill="#C0C0C0" stroke="none" d="M 1327 394.5 C 1327 388.1487248 1332.1487248 383 1338.5 383 C 1344.8512752 383 1350 388.1487248 1350 394.5 C 1350 400.8512752 1344.8512752 406 1338.5 406 C 1332.1487248 406 1327 400.8512752 1327 394.5 Z" opacity="0.2"/></g><g transform="translate(-238,-46) scale(1,1)"><path fill="#ffffff" stroke="none" d="M 1320 387.5 C 1320 381.1487248 1325.1487248 376 1331.5 376 C 1337.8512752 376 1343 381.1487248 1343 387.5 C 1343 393.8512752 1337.8512752 399 1331.5 399 C 1325.1487248 399 1320 393.8512752 1320 387.5 Z"/></g><g transform="translate(-238,-46) scale(1,1)"><path fill="none" stroke="#000000" d="M 1320 387.5 C 1320 381.1487248 1325.1487248 376 1331.5 376 C 1337.8512752 376 1343 381.1487248 1343 387.5 C 1343 393.8512752 1337.8512752 399 1331.5 399 C 1325.1487248 399 1320 393.8512752 1320 387.5 Z" stroke-miterlimit="10"/></g><g transform="translate(-238,-46) scale(1,1)"><path fill="none" stroke="#000000" d="M 1248 424 L 1415 424" stroke-miterlimit="10"/></g><g transform="translate(-238,-46) scale(1,1)"><g><path fill="none" stroke="none"/><text fill="#000000" stroke="none" font-family="Arial" font-size="13px" font-style="normal" font-weight="bold" text-decoration="none" x="1315.60546875" y="418.5">IDuur</text></g></g><g transform="translate(-238,-46) scale(1,1)"><g><path fill="none" stroke="none"/><text fill="#000000" stroke="none" font-family="Arial" font-size="13px" font-style="normal" font-weight="normal" text-decoration="none" x="1253" y="441.5">+getIDuur():int</text></g></g><g transform="translate(-238,-46) scale(1,1)"><g><path fill="none" stroke="none"/><text fill="#000000" stroke="none" font-family="Arial" font-size="13px" font-style="normal" font-weight="normal" text-decoration="none" x="1253" y="456.5">+setIDuur(int):void</text></g></g><g transform="translate(-238,-46) scale(1,1)"><path fill="#C0C0C0" stroke="none" d="M 327 538.5 C 327 532.1487248 332.1487248 527 338.5 527 C 344.8512752 527 350 532.1487248 350 538.5 C 350 544.8512752 344.8512752 550 338.5 550 C 332.1487248 550 327 544.8512752 327 538.5 Z" opacity="0.2"/></g><g transform="translate(-238,-46) scale(1,1)"><path fill="#ffffff" stroke="none" d="M 320 531.5 C 320 525.1487248 325.1487248 520 331.5 520 C 337.8512752 520 343 525.1487248 343 531.5 C 343 537.8512752 337.8512752 543 331.5 543 C 325.1487248 543 320 537.8512752 320 531.5 Z"/></g><g transform="translate(-238,-46) scale(1,1)"><path fill="none" stroke="#000000" d="M 320 531.5 C 320 525.1487248 325.1487248 520 331.5 520 C 337.8512752 520 343 525.1487248 343 531.5 C 343 537.8512752 337.8512752 543 331.5 543 C 325.1487248 543 320 537.8512752 320 531.5 Z" stroke-miterlimit="10"/></g><g transform="translate(-238,-46) scale(1,1)"><path fill="none" stroke="#000000" d="M 248 568 L 415 568" stroke-miterlimit="10"/></g><g transform="translate(-238,-46) scale(1,1)"><g><path fill="none" stroke="none"/><text fill="#000000" stroke="none" font-family="Arial" font-size="13px" font-style="normal" font-weight="bold" text-decoration="none" x="298.974609375" y="562.5">IAfbeelding</text></g></g><g transform="translate(-238,-46) scale(1,1)"><g><path fill="none" stroke="none"/><text fill="#000000" stroke="none" font-family="Arial" font-size="13px" font-style="normal" font-weight="normal" text-decoration="none" x="253" y="585.5">+getIAfbeelding():string</text></g></g><g transform="translate(-238,-46) scale(1,1)"><g><path fill="none" stroke="none"/><text fill="#000000" stroke="none" font-family="Arial" font-size="13px" font-style="normal" font-weight="normal" text-decoration="none" x="253" y="600.5">+setIAfbeelding(string):void</text></g></g><g transform="translate(-238,-46) scale(1,1)"><path fill="#C0C0C0" stroke="none" d="M 1511.619873046875 74.5 C 1511.619873046875 68.1487248 1516.768597846875 63 1523.119873046875 63 C 1529.471148246875 63 1534.619873046875 68.1487248 1534.619873046875 74.5 C 1534.619873046875 80.8512752 1529.471148246875 86 1523.119873046875 86 C 1516.768597846875 86 1511.619873046875 80.8512752 1511.619873046875 74.5 Z" opacity="0.2"/></g><g transform="translate(-238,-46) scale(1,1)"><path fill="#ffffff" stroke="none" d="M 1504.619873046875 67.5 C 1504.619873046875 61.1487248 1509.768597846875 56 1516.119873046875 56 C 1522.471148246875 56 1527.619873046875 61.1487248 1527.619873046875 67.5 C 1527.619873046875 73.8512752 1522.471148246875 79 1516.119873046875 79 C 1509.768597846875 79 1504.619873046875 73.8512752 1504.619873046875 67.5 Z"/></g><g transform="translate(-238,-46) scale(1,1)"><path fill="none" stroke="#000000" d="M 1504.619873046875 67.5 C 1504.619873046875 61.1487248 1509.768597846875 56 1516.119873046875 56 C 1522.471148246875 56 1527.619873046875 61.1487248 1527.619873046875 67.5 C 1527.619873046875 73.8512752 1522.471148246875 79 1516.119873046875 79 C 1509.768597846875 79 1504.619873046875 73.8512752 1504.619873046875 67.5 Z" stroke-miterlimit="10"/></g><g transform="translate(-238,-46) scale(1,1)"><path fill="none" stroke="#000000" d="M 1424 104 L 1608.23974609375 104" stroke-miterlimit="10"/></g><g transform="translate(-238,-46) scale(1,1)"><g><path fill="none" stroke="none"/><text fill="#000000" stroke="none" font-family="Arial" font-size="13px" font-style="normal" font-weight="bold" text-decoration="none" x="1465.890869140625" y="98.5">IAantalBladzijden</text></g></g><g transform="translate(-238,-46) scale(1,1)"><g><path fill="none" stroke="none"/><text fill="#000000" stroke="none" font-family="Arial" font-size="13px" font-style="normal" font-weight="normal" text-decoration="none" x="1429" y="121.5">+getIAantalBladzijden():int</text></g></g><g transform="translate(-238,-46) scale(1,1)"><g><path fill="none" stroke="none"/><text fill="#000000" stroke="none" font-family="Arial" font-size="13px" font-style="normal" font-weight="normal" text-decoration="none" x="1429" y="136.5">+setIAantalBladzijden(int):void</text></g></g><g transform="translate(-238,-46) scale(1,1)"><path fill="#C0C0C0" stroke="none" d="M 739 322.5 C 739 316.1487248 744.1487248 311 750.5 311 C 756.8512752 311 762 316.1487248 762 322.5 C 762 328.8512752 756.8512752 334 750.5 334 C 744.1487248 334 739 328.8512752 739 322.5 Z" opacity="0.2"/></g><g transform="translate(-238,-46) scale(1,1)"><path fill="#ffffff" stroke="none" d="M 732 315.5 C 732 309.1487248 737.1487248 304 743.5 304 C 749.8512752 304 755 309.1487248 755 315.5 C 755 321.8512752 749.8512752 327 743.5 327 C 737.1487248 327 732 321.8512752 732 315.5 Z"/></g><g transform="translate(-238,-46) scale(1,1)"><path fill="none" stroke="#000000" d="M 732 315.5 C 732 309.1487248 737.1487248 304 743.5 304 C 749.8512752 304 755 309.1487248 755 315.5 C 755 321.8512752 749.8512752 327 743.5 327 C 737.1487248 327 732 321.8512752 732 315.5 Z" stroke-miterlimit="10"/></g><g transform="translate(-238,-46) scale(1,1)"><path fill="none" stroke="#000000" d="M 664 352 L 823 352" stroke-miterlimit="10"/></g><g transform="translate(-238,-46) scale(1,1)"><g><path fill="none" stroke="none"/><text fill="#000000" stroke="none" font-family="Arial" font-size="13px" font-style="normal" font-weight="bold" text-decoration="none" x="718.214111328125" y="346.5">IGewicht</text></g></g><g transform="translate(-238,-46) scale(1,1)"><g><path fill="none" stroke="none"/><text fill="#000000" stroke="none" font-family="Arial" font-size="13px" font-style="normal" font-weight="normal" text-decoration="none" x="669" y="369.5">+getIGewicht():int</text></g></g><g transform="translate(-238,-46) scale(1,1)"><g><path fill="none" stroke="none"/><text fill="#000000" stroke="none" font-family="Arial" font-size="13px" font-style="normal" font-weight="normal" text-decoration="none" x="669" y="384.5">+setIGewicht(int):void</text></g></g><g transform="translate(-238,-46) scale(1,1)"><path fill="none" stroke="#000000" d="M 330 519 L 324 128" stroke-miterlimit="10"/></g><g transform="translate(-238,-46) scale(1,1)"><path fill="none" stroke="#000000" d="M 359 519 L 490 312" stroke-miterlimit="10"/></g><g transform="translate(-238,-46) scale(1,1)"><path fill="none" stroke="#000000" d="M 389 519 L 513 424" stroke-miterlimit="10"/></g><g transform="translate(-238,-46) scale(1,1)"><path fill="none" stroke="#000000" d="M 416 546 L 1055 418" stroke-miterlimit="10"/></g><g transform="translate(-238,-46) scale(1,1)"><path fill="none" stroke="#000000" d="M 343 519 L 426 216" stroke-miterlimit="10"/></g><g transform="translate(-238,-46) scale(1,1)"><path fill="none" stroke="#000000" d="M 416 535 L 847 394" stroke-miterlimit="10"/></g><g transform="translate(-238,-46) scale(1,1)"><path fill="none" stroke="#000000" d="M 663 363 L 632 370" stroke-miterlimit="10"/></g><g transform="translate(-238,-46) scale(1,1)"><path fill="none" stroke="#000000" d="M 824 359 L 847 362" stroke-miterlimit="10"/></g><g transform="translate(-238,-46) scale(1,1)"><path fill="none" stroke="#000000" d="M 1423 97 L 1298 94" stroke-miterlimit="10"/></g><g transform="translate(-238,-46) scale(1,1)"><path fill="none" stroke="#000000" d="M 1431 183 L 1298 129" stroke-miterlimit="10"/></g><g transform="translate(-238,-46) scale(1,1)"><path fill="none" stroke="#000000" d="M 1431 214 L 1272 206" stroke-miterlimit="10"/></g><g transform="translate(-238,-46) scale(1,1)"><path fill="none" stroke="#000000" d="M 1247 413 L 1192 409" stroke-miterlimit="10"/></g><g transform="translate(-238,-46) scale(1,1)"><path fill="none" stroke="#000000" d="M 1287 375 L 1240 328" stroke-miterlimit="10"/></g></g></svg>